<?xml version="1.0" encoding="UTF-8" standalone="no"?>
<!-- Created with Inkscape (http://www.inkscape.org/) -->

<svg
   width="69.47654mm"
   height="54.191895mm"
   viewBox="0 0 69.47654 54.191895"
   version="1.1"
   id="svg1"
   xml:space="preserve"
   xmlns:inkscape="http://www.inkscape.org/namespaces/inkscape"
   xmlns:sodipodi="http://sodipodi.sourceforge.net/DTD/sodipodi-0.dtd"
   xmlns="http://www.w3.org/2000/svg"
   xmlns:svg="http://www.w3.org/2000/svg"><sodipodi:namedview
     id="namedview1"
     pagecolor="#505050"
     bordercolor="#ffffff"
     borderopacity="1"
     inkscape:showpageshadow="0"
     inkscape:pageopacity="0"
     inkscape:pagecheckerboard="1"
     inkscape:deskcolor="#d1d1d1"
     inkscape:document-units="mm" /><defs
     id="defs1" /><g
     inkscape:label="Layer 1"
     inkscape:groupmode="layer"
     id="layer1"
     transform="translate(-70.261728,-58.967657)"><path
       id="rect5"
       style="opacity:1;fill:#ffffff;stroke:none;stroke-width:0.503471"
       d="m 99.687637,59.940647 c -4.31265,0.97913 -4.79889,1.14187 -6.80777,2.28352 -7.6989,4.37526 -12.77684,11.69618 -13.92342,20.07309 -0.48288,3.5279 -0.36203,6.12722 0.45225,9.72885 0.79185,3.50247 1.79036,5.9153 3.63025,8.771413 0.66981,1.03976 1.19529,1.9229 1.16787,1.96221 -0.0274,0.0393 -0.8557,0.38838 -1.84101,0.77597 -5.95168,2.34122 -7.70214,1.19401 -4.79308,-3.14211 1.03566,-1.543713 1.08306,-1.706123 0.7388,-2.548503 -0.2022,-0.49487 -0.45355,-0.90558 -0.55815,-0.91277 -0.37489,-0.0257 -3.90533,4.312413 -5.34198,6.564093 -1.39054,2.17941 -2.34463,4.80059 -2.11574,5.81297 0.0554,0.24511 0.46499,0.72205 0.91035,1.05989 0.74543,0.56543 1.83073,0.75257 3.81829,0.65835 1.17273,-0.0556 5.1602,-1.28666 8.21509,-2.536 16.11327,-6.58976 40.461623,-24.371163 51.586553,-37.673313 4.59568,-5.49507 6.09468,-9.67679 3.95331,-11.02845 -1.28109,-0.80862 -2.74386,-0.72514 -6.89225,0.39372 -3.39269,0.91503 -6.86115,2.21746 -7.15779,2.68742 -0.0661,0.10476 0.20984,0.45788 0.61295,0.78487 0.70978,0.57576 0.80914,0.57715 3.15351,0.0473 2.13581,-0.48272 2.50141,-0.49613 3.10393,-0.11579 0.49627,0.31325 0.67834,0.6194 0.66653,1.12031 -0.0195,0.82831 -1.49092,3.29513 -2.96979,4.97876 l -1.07281,1.2211 -1.33345,-1.64239 c -2.11679,-2.60705 -3.86481,-4.1549 -6.76984,-5.99429 -4.27985,-2.70988 -8.481,-4.02405 -13.68258,-4.28041 -1.79616,-0.0885 -2.78801,0.051 -6.750023,0.95017 z m 32.532563,20.91377 -5.53241,4.62514 c -13.59171,11.36315 -21.67556,19.724903 -22.95217,23.741403 -0.67283,2.11687 -0.17423,3.22136 1.67354,3.70909 1.54868,0.40877 2.44024,0.31672 6.24819,-0.64599 2.98389,-0.75438 4.22604,-1.19969 6.27318,-2.24848 7.14169,-3.65887 12.07695,-9.77134 13.9312,-17.254693 0.86765,-3.50163 1.12393,-8.54078 0.56109,-11.03028 z" /></g></svg>
